<?xml version="1.0" encoding="UTF-8" standalone="no"?>
<svg
   xmlns:dc="http://purl.org/dc/elements/1.1/"
   xmlns:cc="http://creativecommons.org/ns#"
   xmlns:rdf="http://www.w3.org/1999/02/22-rdf-syntax-ns#"
   xmlns:svg="http://www.w3.org/2000/svg"
   xmlns="http://www.w3.org/2000/svg"
   xmlns:sodipodi="http://sodipodi.sourceforge.net/DTD/sodipodi-0.dtd"
   xmlns:inkscape="http://www.inkscape.org/namespaces/inkscape"
   width="39.999973mm"
   height="40.000042mm"
   viewBox="0 0 39.999973 40.000042"
   version="1.1"
   id="svg8"
   inkscape:version="1.0.2 (e86c870879, 2021-01-15, custom)"
   sodipodi:docname="logo.svg"
   inkscape:export-filename="C:\Users\git\git\recipe-list\logo.png"
   inkscape:export-xdpi="2600.9617"
   inkscape:export-ydpi="2600.9617">
  <defs
     id="defs2">
    <mask
       maskUnits="userSpaceOnUse"
       id="mask947">
      <g
         id="g953"
         transform="matrix(3.7795276,0,0,3.7795276,-385.14627,-507.67912)">
        <path
           id="path949"
           style="color:#000000;font-style:normal;font-variant:normal;font-weight:normal;font-stretch:normal;font-size:medium;line-height:normal;font-family:sans-serif;font-variant-ligatures:normal;font-variant-position:normal;font-variant-caps:normal;font-variant-numeric:normal;font-variant-alternates:normal;font-variant-east-asian:normal;font-feature-settings:normal;font-variation-settings:normal;text-indent:0;text-align:start;text-decoration:none;text-decoration-line:none;text-decoration-style:solid;text-decoration-color:#000000;letter-spacing:normal;word-spacing:normal;text-transform:none;writing-mode:lr-tb;direction:ltr;text-orientation:mixed;dominant-baseline:auto;baseline-shift:baseline;text-anchor:start;white-space:normal;shape-padding:0;shape-margin:0;inline-size:0;clip-rule:nonzero;display:inline;overflow:visible;visibility:visible;isolation:auto;mix-blend-mode:normal;color-interpolation:sRGB;color-interpolation-filters:linearRGB;solid-color:#000000;solid-opacity:1;vector-effect:none;fill:#ffffff;fill-opacity:1;fill-rule:nonzero;stroke:none;stroke-width:0.264583px;stroke-linecap:butt;stroke-linejoin:miter;stroke-miterlimit:4;stroke-dasharray:none;stroke-dashoffset:0;stroke-opacity:1;color-rendering:auto;image-rendering:auto;shape-rendering:auto;text-rendering:auto;enable-background:accumulate;stop-color:#000000;stop-opacity:1"
           d="m 100.93853,141.94922 c 2.73403,-2.64583 5.46806,-5.29167 8.20209,-7.9375 0,2.64583 0,5.29167 0,7.9375 -2.73403,0 -5.46806,0 -8.20209,0 z" />
        <path
           id="path951"
           style="color:#000000;font-style:normal;font-variant:normal;font-weight:normal;font-stretch:normal;font-size:medium;line-height:normal;font-family:sans-serif;font-variant-ligatures:normal;font-variant-position:normal;font-variant-caps:normal;font-variant-numeric:normal;font-variant-alternates:normal;font-variant-east-asian:normal;font-feature-settings:normal;font-variation-settings:normal;text-indent:0;text-align:start;text-decoration:none;text-decoration-line:none;text-decoration-style:solid;text-decoration-color:#000000;letter-spacing:normal;word-spacing:normal;text-transform:none;writing-mode:lr-tb;direction:ltr;text-orientation:mixed;dominant-baseline:auto;baseline-shift:baseline;text-anchor:start;white-space:normal;shape-padding:0;shape-margin:0;inline-size:0;clip-rule:nonzero;display:inline;overflow:visible;visibility:visible;isolation:auto;mix-blend-mode:normal;color-interpolation:sRGB;color-interpolation-filters:linearRGB;solid-color:#000000;solid-opacity:1;vector-effect:none;fill:#ffffff;fill-opacity:1;fill-rule:nonzero;stroke:none;stroke-linecap:butt;stroke-linejoin:miter;stroke-miterlimit:4;stroke-dasharray:none;stroke-dashoffset:0;stroke-opacity:1;color-rendering:auto;image-rendering:auto;shape-rendering:auto;text-rendering:auto;enable-background:accumulate;stop-color:#000000;stop-opacity:1"
           d="m 109.4043,133.83203 c -2.88672,2.79362 -5.77344,5.58724 -8.66016,8.38086 2.88672,0 5.77344,0 8.66016,0 0,-2.79362 0,-5.58724 0,-8.38086 z m -0.26368,0.62305 c 0,2.49805 0,4.99609 0,7.49414 -2.58138,0 -5.16276,0 -7.74414,0 2.58138,-2.49805 5.16276,-4.99609 7.74414,-7.49414 z" />
      </g>
    </mask>
    <mask
       maskUnits="userSpaceOnUse"
       id="mask975">
      <path
         style="fill:#ffffff;fill-opacity:1;stroke:#ffffff;stroke-width:0.999999px;stroke-linecap:butt;stroke-linejoin:miter;stroke-opacity:1"
         d="m -61.109783,-62.963639 -32.999991,32.00001 v -32.00001 z"
         id="path977" />
    </mask>
  </defs>
  <sodipodi:namedview
     id="base"
     pagecolor="#ffffff"
     bordercolor="#666666"
     borderopacity="1.0"
     inkscape:pageopacity="0.0"
     inkscape:pageshadow="2"
     inkscape:zoom="1.979899"
     inkscape:cx="33.992673"
     inkscape:cy="65.918175"
     inkscape:document-units="mm"
     inkscape:current-layer="g984"
     inkscape:document-rotation="0"
     showgrid="true"
     fit-margin-top="0"
     fit-margin-left="0"
     fit-margin-right="0"
     fit-margin-bottom="0"
     inkscape:window-width="1920"
     inkscape:window-height="1017"
     inkscape:window-x="1432"
     inkscape:window-y="-8"
     inkscape:window-maximized="1">
    <inkscape:grid
       type="xygrid"
       id="grid869"
       originx="-81.119107"
       originy="-105.86331" />
  </sodipodi:namedview>
  <metadata
     id="metadata5">
    <rdf:RDF>
      <cc:Work
         rdf:about="">
        <dc:format>image/svg+xml</dc:format>
        <dc:type
           rdf:resource="http://purl.org/dc/dcmitype/StillImage" />
        <dc:title></dc:title>
      </cc:Work>
    </rdf:RDF>
  </metadata>
  <g
     inkscape:label="Layer 1"
     inkscape:groupmode="layer"
     id="layer1"
     transform="translate(-81.119107,-105.86331)">
    <g
       id="g984"
       transform="matrix(5.8993055,0,0,5.4770376,-409.83906,-628.83255)">
      <g
         style="clip-rule:evenodd;fill-rule:evenodd"
         id="g857"
         transform="matrix(0.27716477,0,0,0.30417425,108.03428,152.50003)"
         mask="url(#mask975)">
        <path
           d="m -78.109771,-47.963615 1.868,-2.289 c 0.425,-0.544 0.224,-0.988 -0.055,-2.165 -0.205,-0.871 -0.044,-1.854 0.572,-2.5 1.761,-1.844 5.343,-5.439 5.343,-5.439 l 0.472,0.37 -3.693,4.728 0.79,0.617 3.87,-4.59 0.479,0.373 -3.558,4.835 0.79,0.618 3.885,-4.58 0.443,0.347 -3.538,4.85 0.791,0.617 3.693,-4.728 0.433,0.338 c 0,0 -2.55,4.36 -3.898,6.535 -0.479,0.771 -1.425,1.161 -2.334,1.167 -1.211,0.007 -1.685,-0.089 -2.117,0.464 l -2.281,2.795 c 2.445,2.962 4.559,5.531 5.573,6.829 0.771,0.987 0.065,2.421 -1.198,2.421 -0.42,0 -0.853,-0.171 -1.167,-0.573 l -8.36,-10.072 c 0,0 -0.926,0.719 -1.944,1.518 -3.172,-5.184 -6.267,-11.661 -6.267,-13.955 0,-0.128 -0.034,-0.924 0.732,-0.924 0.245,0 0.493,0.116 0.674,0.344 0.509,0.642 5.415,6.513 10.002,12.049 m -2.952,3.617 1.953,2.365 -4.115,5.055 c -0.295,0.378 -0.736,0.576 -1.182,0.576 -1.198,0 -1.991,-1.402 -1.189,-2.428 z"
           fill="#030405"
           id="path846"
           style="fill:#000000;fill-opacity:1;stroke:none" />
      </g>
      <g
         style="clip-rule:evenodd;fill:#000000;fill-opacity:1;fill-rule:evenodd;stroke:none;stroke-opacity:1"
         id="g844"
         transform="matrix(0.27716477,0,0,0.30417425,83.34949,134.44832)"
         mask="url(#mask947)">
        <path
           id="path833"
           style="color:#000000;font-style:normal;font-variant:normal;font-weight:normal;font-stretch:normal;font-size:medium;line-height:normal;font-family:sans-serif;font-variant-ligatures:normal;font-variant-position:normal;font-variant-caps:normal;font-variant-numeric:normal;font-variant-alternates:normal;font-variant-east-asian:normal;font-feature-settings:normal;font-variation-settings:normal;text-indent:0;text-align:start;text-decoration:none;text-decoration-line:none;text-decoration-style:solid;text-decoration-color:#000000;letter-spacing:normal;word-spacing:normal;text-transform:none;writing-mode:lr-tb;direction:ltr;text-orientation:mixed;dominant-baseline:auto;baseline-shift:baseline;text-anchor:start;white-space:normal;shape-padding:0;shape-margin:0;inline-size:0;clip-rule:nonzero;display:inline;overflow:visible;visibility:visible;opacity:1;isolation:auto;mix-blend-mode:normal;color-interpolation:sRGB;color-interpolation-filters:linearRGB;solid-color:#000000;solid-opacity:1;vector-effect:none;fill:#000000;fill-opacity:1;fill-rule:nonzero;stroke:none;stroke-width:1;stroke-linecap:butt;stroke-linejoin:miter;stroke-miterlimit:4;stroke-dasharray:none;stroke-dashoffset:0;stroke-opacity:1;color-rendering:auto;image-rendering:auto;shape-rendering:auto;text-rendering:auto;enable-background:accumulate;stop-color:#000000;stop-opacity:1"
           d="m 8.742,2.397 c 1.662435,-1.84816786 4.853876,-1.84897123 6.516,0 3.448114,-1.3809409 7.713326,0.8566884 8.537187,4.4791664 C 24.522274,9.5237324 23.33008,12.531899 21,13.976 21,16.984 21,19.992 21,23 15,23 9,23 3,23 3,19.992 3,16.984 3,13.976 -0.12059527,12.098128 -0.98962263,7.4736825 1.2921579,4.6117416 2.9450623,2.333625 6.1130581,1.3941955 8.742,2.397 Z M 15,22 c 1.666667,0 3.333333,0 5,0 0,-2.501667 0,-5.003333 0,-7.505 -0.661646,0.631928 -3.447366,0.737074 -2.047,-0.47 C 20.688732,13.746501 23.159683,11.350443 23,8.5 23.113678,5.1529867 19.675935,2.3394323 16.417609,3.1061543 14.599276,4.4285034 13.727927,1.496994 11.762879,2.0019863 10.024806,1.8895395 9.2750818,4.3769419 7.5670625,3.1014082 4.3099664,2.3463969 0.88840163,5.1602855 1,8.5 0.83987909,11.350998 3.3114858,13.747715 6.048,14.025 7.561815,15.500978 4.2538038,14.695531 4,14.69145 4,17.127633 4,19.563817 4,22 5.6666667,22 7.3333333,22 9,22 9.0284973,20.764994 8.9422753,19.517962 9.044375,18.290672 9.9830522,17.38012 10.111726,19.016384 10,19.678699 10,20.452466 10,21.226233 10,22 c 1.333333,0 2.666667,0 4,0 0.0285,-1.235006 -0.05772,-2.482038 0.04438,-3.709328 0.93894,-0.91071 1.067238,0.725614 0.95562,1.388027 0,0.773767 0,1.547534 0,2.321301 z" />
      </g>
    </g>
  </g>
</svg>
